mastitorrents.com
  
http://mastitorrents.com/forums/index.php
  
http://thepiratebay.se/user/HDvideos/0/7

Zero Dark Thirty (2012) BluRay 720p Dual Audio[Hindi-Eng] 5.1

Format                                   : Matroska
Format version                           : Version 4 / Version 2
File size                                : 1.49 GiB
Duration                                 : 2h 36mn
Overall bit rate                         : 1 356 Kbps
Movie name                               : Zero Dark Thirty (2012) BluRay 720p Dual Audio[Hindi-Eng] 5.1

Video

Format                                   : AVC
Format/Info                              : Advanced Video Codec
Format profile                           : High@L3.1
Format settings, CABAC                   : Yes
Format settings, ReFrames                : 4 frames
Codec ID                                 : V_MPEG4/ISO/AVC
Duration                                 : 2h 36mn
Bit rate                                 : 684 Kbps
Width                                    : 1 280 pixels
Height                                   : 688 pixels
Display aspect ratio                     : 1.85:1
Frame rate mode                          : Constant
Frame rate                               : 23.976 fps
Color space                              : YUV
Chroma subsampling                       : 4:2:0
Bit depth                                : 8 bits
Scan type                                : Progressive
Bits/(Pixel*Frame)                       : 0.032
Stream size                              : 737 MiB (48%)
Writing library                          : x264 core 130 r2273 b3065e6

Audio 1

Format                                   : AC-3
Format/Info                              : Audio Coding 3
Mode extension                           : CM (complete main)
Format settings, Endianness              : Big
Codec ID                                 : A_AC3
Duration                                 : 2h 36mn
Bit rate mode                            : Constant
Bit rate                                 : 448 Kbps
Channel(s)                               : 6 channels
Channel positions                        : Front: L C R, Side: L R, LFE
Sampling rate                            : 48.0 KHz
Bit depth                                : 16 bits
Compression mode                         : Lossy
Stream size                              : 503 MiB (33%)
Language                                 : Hindi
Default                                  : Yes

Audio 2

Format                                   : AC-3
Format/Info                              : Audio Coding 3
Mode extension                           : CM (complete main)
Format settings, Endianness              : Big
Codec ID                                 : A_AC3
Duration                                 : 2h 36mn
Bit rate mode                            : Constant
Bit rate                                 : 224 Kbps
Channel(s)                               : 6 channels
Channel positions                        : Front: L C R, Side: L R, LFE
Sampling rate                            : 48.0 KHz
Bit depth                                : 16 bits
Compression mode                         : Lossy
Stream size                              : 252 MiB (17%)
Language                                 : English

Screens: 
http://img542.imageshack.us/img542/299/zerodarkthirty2012r1fro.jpg 
http://img69.imageshack.us/img69/4997/68472243.png 
http://img29.imageshack.us/img29/9217/10336519.png 
http://img12.imageshack.us/img12/4831/12826264.png 
http://img94.imageshack.us/img94/3766/88551236.png 
http://img689.imageshack.us/img689/6171/81382986.png 
http://img826.imageshack.us/img826/5572/98421107.png 
http://img835.imageshack.us/img835/2992/65711363.png 
http://img12.imageshack.us/img12/4903/95190419.png 
http://img841.imageshack.us/img841/74/17847686.png 
http://img404.imageshack.us/img404/2915/63784150.png 
http://img194.imageshack.us/img194/1990/51597704.png 
http://img404.imageshack.us/img404/226/66605836.png